<svg width="20" height="20" viewBox="0 0 20 20" fill="none" xmlns="http://www.w3.org/2000/svg">
<path d="M11.8854 10L18.9427 2.94264C19.4641 2.42264 19.4641 1.57738 18.9427 1.05738C18.4214 0.536049 17.5787 0.536049 17.0574 1.05738L10 8.11467L2.94272 1.05738C2.42138 0.536049 1.57872 0.536049 1.05738 1.05738C0.536048 1.57738 0.536048 2.42264 1.05738 2.94264L8.11471 10L1.05738 17.0574C0.536048 17.5774 0.536048 18.4226 1.05738 18.9426C1.31738 19.2026 1.65872 19.3333 2.00005 19.3333C2.34138 19.3333 2.68272 19.2026 2.94272 18.9426L10 11.8853L17.0574 18.9426C17.3174 19.2026 17.6587 19.3333 18 19.3333C18.3414 19.3333 18.6827 19.2026 18.9427 18.9426C19.4641 18.4226 19.4641 17.5774 18.9427 17.0574L11.8854 10Z" fill="black"/>
</svg>