<svg width="28" height="26" viewBox="0 0 28 26" fill="none" xmlns="http://www.w3.org/2000/svg">
<path d="M10.6667 17.0203C16.0891 17.0203 20.6667 17.9125 20.6667 21.3584C20.6667 24.8042 16.0597 25.6667 10.6667 25.6667C5.24429 25.6667 0.666687 24.7731 0.666687 21.3286C0.666687 17.8828 5.27232 17.0203 10.6667 17.0203ZM23.332 7.00004C23.9936 7.00004 24.5306 7.54597 24.5306 8.21553V9.78386H26.1347C26.795 9.78386 27.3334 10.3298 27.3334 10.9993C27.3334 11.6689 26.795 12.2148 26.1347 12.2148H24.5306V13.7846C24.5306 14.4541 23.9936 15 23.332 15C22.6717 15 22.1334 14.4541 22.1334 13.7846V12.2148H20.532C19.8703 12.2148 19.3334 11.6689 19.3334 10.9993C19.3334 10.3298 19.8703 9.78386 20.532 9.78386H22.1334V8.21553C22.1334 7.54597 22.6717 7.00004 23.332 7.00004ZM10.6667 0.333374C14.3394 0.333374 17.2835 3.31555 17.2835 7.03583C17.2835 10.7561 14.3394 13.7383 10.6667 13.7383C6.99393 13.7383 4.04984 10.7561 4.04984 7.03583C4.04984 3.31555 6.99393 0.333374 10.6667 0.333374Z" fill="black"/>
</svg>